<svg preserveAspectRatio="none" overflow="visible" style="display: block;" width="249.37" height="168.793" viewBox="0 0 249.37 168.793" fill="none" xmlns="http://www.w3.org/2000/svg">
<g id="Hello">
<path id="Vector" d="M158.689 139.989L146.052 140.906L146.138 142.088L158.775 141.171L158.689 139.989Z" fill="#407BFF"/>
<path id="Vector_2" d="M170.044 139.17L163.838 139.62L163.924 140.802L170.13 140.352L170.044 139.17Z" fill="#407BFF"/>
<path id="Vector_3" d="M224.573 0.0368123L15.3031 15.1252C10.9476 15.465 6.90185 17.5087 4.04378 20.8128C1.18571 24.1169 -0.254084 28.4148 0.0368754 32.7738L7.14846 131.412C7.48522 135.774 9.53098 139.826 12.8406 142.687C16.1502 145.549 20.4559 146.987 24.8208 146.69L36.6734 145.836C37.5345 145.774 38.3851 146.056 39.0384 146.621C39.6917 147.185 40.0944 147.986 40.1581 148.847L41.4856 167.124C41.5072 167.477 41.6342 167.817 41.8503 168.098C42.0663 168.379 42.3615 168.589 42.6979 168.702C43.0344 168.814 43.3966 168.823 43.7382 168.727C44.0797 168.632 44.385 168.437 44.6147 168.167L64.456 145.232C65.2903 144.271 66.4703 143.679 67.7392 143.584L234.056 131.601C238.413 131.264 242.462 129.222 245.322 125.917C248.183 122.613 249.624 118.314 249.334 113.953L242.222 15.3149C241.885 10.9573 239.843 6.90851 236.538 4.04793C233.234 1.18735 228.934 -0.254032 224.573 0.0368123Z" fill="#407BFF"/>
<path id="Vector_4" d="M45.8711 60.4023L57.1785 59.5845L58.103 72.3853L70.4534 71.4964L69.5289 58.6955L80.8838 57.8659L83.5269 94.4431L72.1721 95.261L71.1053 80.4689L58.7549 81.3697L59.8216 96.1617L48.5261 96.9796L45.8711 60.4023Z" fill="white"/>
<path id="Vector_5" opacity="0.2" d="M15.3031 15.1252C10.9476 15.465 6.90185 17.5087 4.04378 20.8128C1.1857 24.1169 -0.254087 28.4148 0.0368731 32.7738L7.14846 131.411C7.48522 135.773 9.53098 139.826 12.8406 142.687C16.1502 145.548 20.4559 146.987 24.8208 146.69L26.5631 146.559C29.458 146.35 32.2029 145.191 34.3718 143.262C36.5406 141.333 38.0122 138.743 38.558 135.892L62.3936 11.7235L15.3031 15.1252Z" fill="black"/>
<path id="Vector_6" d="M119.002 81.097L98.639 82.5668C98.7952 83.8858 99.3492 85.126 100.227 86.1226C100.731 86.6525 101.35 87.0588 102.037 87.3096C102.724 87.5605 103.459 87.6491 104.186 87.5686C105.184 87.4973 106.147 87.1708 106.983 86.6204C107.637 86.1251 108.196 85.5145 108.631 84.8188L118.706 85.0203C117.609 87.5043 115.829 89.6254 113.573 91.1362C111.503 92.4479 108.445 93.2381 104.399 93.5068C101.571 93.836 98.7045 93.5324 96.0077 92.6178C93.8458 91.7102 91.9903 90.2003 90.6622 88.2679C89.1396 86.068 88.2648 83.485 88.1376 80.8126C87.926 78.9567 88.1058 77.077 88.6651 75.2948C89.2245 73.5126 90.1511 71.8674 91.3852 70.4652C93.8506 67.7154 97.4064 66.1706 102.053 65.8308C105.129 65.4653 108.247 65.8308 111.155 66.8976C113.382 67.8488 115.258 69.4682 116.525 71.532C117.975 74.095 118.788 76.969 118.895 79.9118L119.002 81.097ZM108.334 76.9723C108.19 75.4309 107.526 73.9846 106.45 72.8713C105.908 72.4543 105.286 72.1531 104.623 71.9864C103.96 71.8196 103.27 71.791 102.595 71.9021C101.921 72.0132 101.276 72.2618 100.702 72.6325C100.127 73.0031 99.6348 73.4878 99.2554 74.0566C98.6227 75.1717 98.3033 76.4372 98.3309 77.719L108.334 76.9723Z" fill="white"/>
<path id="Vector_7" d="M122.143 54.8909L132.324 54.156L134.967 90.7214L124.786 91.4563L122.143 54.8909Z" fill="white"/>
<path id="Vector_8" d="M139.151 53.6582L149.333 52.9233L151.976 89.4887L141.806 90.2236L139.151 53.6582Z" fill="white"/>
<path id="Vector_9" d="M156.266 75.9412C156.074 74.0861 156.274 72.2113 156.854 70.4388C157.434 68.6662 158.381 67.0356 159.632 65.6531C162.169 62.8321 165.76 61.2518 170.406 60.912C175.701 60.5327 179.817 61.7812 182.757 64.6574C185.198 67.2322 186.609 70.6143 186.72 74.1608C186.832 77.7074 185.636 81.1713 183.361 83.8943C180.849 86.6915 177.206 88.2719 172.433 88.6354C168.726 89.0801 164.98 88.1984 161.861 86.1463C160.201 84.9948 158.832 83.4736 157.862 81.7026C156.891 79.9316 156.345 77.9593 156.266 75.9412ZM166.448 75.1826C166.429 77.0535 167.071 78.8711 168.261 80.3148C168.741 80.8063 169.322 81.1876 169.964 81.4322C170.606 81.6769 171.294 81.7791 171.979 81.7317C172.665 81.6844 173.332 81.4886 173.934 81.158C174.536 80.8274 175.06 80.3698 175.468 79.817C176.425 78.167 176.785 76.2373 176.487 74.3529C176.499 72.5196 175.865 70.7406 174.697 69.3274C174.241 68.8267 173.675 68.4379 173.044 68.1912C172.413 67.9445 171.733 67.8466 171.058 67.9051C170.354 67.9378 169.667 68.1324 169.051 68.4736C168.434 68.8148 167.904 69.2935 167.503 69.8726C166.547 71.4671 166.19 73.3491 166.495 75.1826H166.448Z" fill="white"/>
<path id="Vector_10" d="M189.928 49.9838L200.773 49.2016L201.377 57.4984L200.488 74.3884L193.78 74.8744L190.52 58.2807L189.928 49.9838ZM192.298 77.5768L202.42 76.8419L203.072 85.8025L192.938 86.5256L192.298 77.5768Z" fill="white"/>
</g>
</svg>
