<svg preserveAspectRatio="none" overflow="visible" style="display: block;" width="54.7608" height="54.7608" viewBox="0 0 54.7608 54.7608" fill="none" xmlns="http://www.w3.org/2000/svg">
<g id="speech-bubble-1">
<path id="Vector" d="M41.0706 41.0706C48.6315 33.5097 48.6315 21.2511 41.0706 13.6902C33.5098 6.1293 21.2511 6.1293 13.6902 13.6902C6.12933 21.2511 6.12933 33.5097 13.6902 41.0706C21.2511 48.6315 33.5097 48.6315 41.0706 41.0706Z" fill="#407BFF"/>
<path id="Vector_2" d="M30.2439 23.2699C30.2439 21.6421 28.8425 20.5318 26.611 20.5318C25.6961 20.4797 24.7826 20.6576 23.9541 21.0493C23.1255 21.4409 22.4083 22.0339 21.8678 22.774L19.0435 20.9414C20.6713 18.7315 23.2908 17.3948 26.9237 17.3948C31.2357 17.3948 34.0492 19.346 34.0492 22.6878C34.0492 27.431 29.0797 27.8622 29.0797 31.3118H25.436C25.436 26.989 30.2439 26.1805 30.2439 23.2699ZM24.9186 35.9795C24.9079 35.5194 25.0344 35.0666 25.282 34.6787C25.5296 34.2907 25.8871 33.9853 26.3089 33.8013C26.7307 33.6173 27.1978 33.563 27.6505 33.6454C28.1033 33.7278 28.5213 33.9431 28.8513 34.2639C29.1812 34.5847 29.4082 34.9964 29.5033 35.4467C29.5984 35.897 29.5573 36.3654 29.3853 36.7922C29.2132 37.219 28.918 37.585 28.5372 37.8434C28.1564 38.1018 27.7073 38.2411 27.2471 38.2433C26.9432 38.2566 26.6399 38.2076 26.3557 38.0993C26.0714 37.9911 25.8123 37.8259 25.5943 37.6139C25.3762 37.4019 25.2038 37.1476 25.0876 36.8665C24.9714 36.5855 24.9139 36.2836 24.9186 35.9795Z" fill="white"/>
<path id="Vector_3" d="M27.3764 41.2078L24.7353 44.7867L27.3764 52.6885L30.0283 44.7867L27.3764 41.2078Z" fill="#407BFF"/>
</g>
</svg>
