<svg preserveAspectRatio="none" overflow="visible" style="display: block;" width="298.838" height="327.112" viewBox="0 0 298.838 327.112" fill="none" xmlns="http://www.w3.org/2000/svg">
<g id="Laptop">
<path id="Vector" d="M6.51972 261.099C6.51972 263.83 8.55444 267.219 11.0744 268.674L110.345 325.999C111.759 326.716 113.322 327.09 114.907 327.09C116.493 327.09 118.056 326.716 119.47 325.999L294.275 225.045C296.795 223.598 298.838 220.201 298.838 217.478C298.838 214.754 296.795 211.358 294.275 209.902L195.005 152.602C193.592 151.884 192.031 151.51 190.446 151.51C188.862 151.51 187.3 151.884 185.888 152.602L11.0744 253.524C8.55444 254.979 6.5119 258.368 6.51972 261.099Z" fill="#37474F"/>
<path id="Vector_2" d="M11.0742 258.79L110.345 316.122C111.76 316.836 113.322 317.208 114.907 317.208C116.492 317.208 118.055 316.836 119.47 316.122L294.275 215.169C296.795 213.714 296.795 211.358 294.275 209.902L195.005 152.602C193.592 151.884 192.03 151.51 190.446 151.51C188.862 151.51 187.3 151.884 185.888 152.602L11.0742 253.524C8.55429 254.979 8.55429 257.335 11.0742 258.79Z" fill="#455A64"/>
<path id="Vector_3" d="M114.908 317.241V327.11C113.321 327.143 111.753 326.769 110.353 326.022L11.0745 268.674C8.55462 267.219 6.51208 263.83 6.51208 261.099C6.51208 258.54 8.31203 255.402 10.6128 253.821C8.57028 255.284 8.72679 257.436 11.0745 258.79L110.353 316.122C111.75 316.879 113.319 317.265 114.908 317.241Z" fill="#263238"/>
<path id="Vector_4" d="M2.23897 253.688C-0.108778 252.326 0.00861091 250.025 0.00861091 247.114V109.998C0.0943485 108.414 0.552144 106.874 1.34486 105.5C2.13757 104.127 3.24287 102.96 4.57107 102.094L179.377 1.14049C181.897 -0.315113 185.856 -0.385544 188.22 0.97615C190.583 2.33784 190.45 4.64646 190.45 7.54985V144.705C190.363 146.287 189.906 147.825 189.115 149.197C188.324 150.569 187.221 151.735 185.896 152.602L11.0743 253.523C8.55441 254.979 4.60237 255.057 2.23897 253.688Z" fill="#37474F"/>
<path id="Vector_5" d="M190.442 7.58115C190.442 4.67777 188.4 3.50389 185.888 4.94385L11.0742 105.881C9.72557 106.721 8.61534 107.893 7.84994 109.286L1.34667 105.506C2.11185 104.111 3.22199 102.937 4.57091 102.094L179.376 1.14049C181.912 -0.283807 185.825 -0.35424 188.173 1.00745C190.52 2.36915 190.442 4.67777 190.442 7.58115Z" fill="#455A64"/>
<path id="Vector_6" d="M10.5267 253.805C8.01462 254.979 4.43039 254.963 2.23133 253.688C-0.116416 252.326 0.000970104 250.025 0.000970104 247.114V109.99C0.0503799 108.404 0.511565 106.859 1.33919 105.506L7.84245 109.27C7.02281 110.632 6.56486 112.181 6.51206 113.77V250.894C6.51206 253.594 8.27287 254.799 10.5267 253.805Z" fill="#263238"/>
<path id="Vector_7" d="M13.5315 111.133L182.069 13.8575C183.579 12.981 184.8 13.6932 184.8 15.4227V139.071C184.743 140.012 184.467 140.928 183.992 141.743C183.518 142.559 182.859 143.252 182.069 143.766L13.5315 241.065C12.0132 241.933 10.7924 241.229 10.7924 239.5V115.875C10.8432 114.925 11.1177 114 11.5937 113.176C12.0697 112.351 12.7336 111.651 13.5315 111.133Z" fill="#FDC674"/>
<path id="Vector_8" opacity="0.3" d="M13.5315 111.133L182.069 13.8575C183.579 12.981 184.8 13.6932 184.8 15.4227V139.071C184.743 140.012 184.467 140.928 183.992 141.743C183.518 142.559 182.859 143.252 182.069 143.766L13.5315 241.065C12.0132 241.933 10.7924 241.229 10.7924 239.5V115.875C10.8432 114.925 11.1177 114 11.5937 113.176C12.0697 112.351 12.7336 111.651 13.5315 111.133Z" fill="black"/>
<path id="Vector_9" d="M23.6898 253.797L185.951 160.114C186.657 159.756 187.439 159.569 188.232 159.569C189.025 159.569 189.806 159.756 190.513 160.114L193.213 161.601C194.473 162.329 194.473 163.503 193.213 164.231L30.9287 257.898C30.2232 258.257 29.4429 258.444 28.6514 258.444C27.8599 258.444 27.0796 258.257 26.3741 257.898L23.6976 256.427C22.4377 255.699 22.4377 254.525 23.6898 253.797Z" fill="#263238"/>
<path id="Vector_10" d="M36.4224 261.365L198.675 167.682C199.306 167.325 200.011 167.118 200.734 167.079C201.458 167.04 202.181 167.168 202.847 167.455L245.106 191.84C246.147 192.443 245.967 193.523 244.707 194.243L82.6183 287.801C81.9883 288.159 81.2839 288.367 80.5603 288.407C79.8366 288.448 79.1134 288.321 78.4471 288.035L36.0311 263.775C34.9903 263.165 35.1625 262.093 36.4224 261.365Z" fill="#263238"/>
<path id="Vector_11" d="M177.021 207.03L182.1 204.096C182.319 203.97 182.335 203.783 182.147 203.673L177.279 200.863C177.165 200.807 177.039 200.778 176.911 200.778C176.784 200.778 176.658 200.807 176.544 200.863L171.465 203.798C171.245 203.923 171.23 204.119 171.418 204.229L176.277 207.03C176.393 207.088 176.52 207.118 176.649 207.118C176.778 207.118 176.906 207.088 177.021 207.03ZM169.602 196.857L164.523 199.854C164.304 199.979 164.288 200.167 164.476 200.277L169.336 203.086C169.451 203.144 169.579 203.174 169.708 203.174C169.837 203.174 169.964 203.144 170.079 203.086L175.158 200.151C175.37 200.026 175.393 199.838 175.198 199.729L170.338 196.919C170.228 196.853 170.103 196.815 169.975 196.808C169.846 196.801 169.718 196.826 169.602 196.88V196.857ZM153.168 206.334L144.559 211.295C144.34 211.421 144.325 211.616 144.512 211.726L149.38 214.527C149.493 214.588 149.62 214.619 149.748 214.619C149.876 214.619 150.003 214.588 150.116 214.527L158.724 209.566C158.943 209.441 158.959 209.253 158.771 209.135L153.911 206.334C153.798 206.28 153.674 206.254 153.548 206.258C153.423 206.262 153.301 206.296 153.191 206.357L153.168 206.334ZM162.152 201.145L157.073 204.08C156.854 204.205 156.838 204.393 157.026 204.502L161.886 207.312C162.001 207.37 162.128 207.4 162.258 207.4C162.387 207.4 162.514 207.37 162.629 207.312L167.708 204.377C167.927 204.252 167.943 204.064 167.755 203.947L162.888 201.145C162.775 201.092 162.652 201.067 162.529 201.071C162.405 201.075 162.284 201.109 162.175 201.169L162.152 201.145ZM142.219 212.649L137.141 215.584C136.929 215.709 136.906 215.897 137.141 216.014L142 218.816C142.114 218.876 142.24 218.908 142.368 218.908C142.496 218.908 142.623 218.876 142.736 218.816L147.815 215.881C148.034 215.756 148.05 215.568 147.862 215.459L143.002 212.649C142.883 212.592 142.752 212.565 142.62 212.569C142.488 212.573 142.358 212.609 142.243 212.673L142.219 212.649ZM134.801 216.938L129.714 219.872C129.503 219.998 129.479 220.185 129.675 220.295L134.535 223.104C134.648 223.165 134.774 223.196 134.902 223.196C135.031 223.196 135.157 223.165 135.27 223.104L140.349 220.17C140.568 220.045 140.584 219.857 140.396 219.747L135.536 216.938C135.424 216.885 135.301 216.86 135.177 216.864C135.054 216.868 134.932 216.901 134.824 216.961L134.801 216.938ZM153.849 228.387L158.928 225.452C159.147 225.335 159.162 225.139 158.975 225.03L154.115 222.22C153.999 222.162 153.872 222.132 153.743 222.132C153.614 222.132 153.487 222.162 153.371 222.22L148.292 225.147C148.081 225.272 148.058 225.468 148.292 225.577L153.152 228.387C153.262 228.448 153.384 228.482 153.509 228.486C153.635 228.491 153.759 228.464 153.872 228.41L153.849 228.387ZM146.445 232.722L151.524 229.788C151.744 229.663 151.759 229.475 151.571 229.365L146.696 226.532C146.581 226.476 146.456 226.447 146.328 226.447C146.201 226.447 146.075 226.476 145.96 226.532L140.873 229.467C140.662 229.592 140.639 229.788 140.834 229.897L145.694 232.699C145.807 232.766 145.936 232.803 146.067 232.807C146.198 232.811 146.328 232.782 146.445 232.722ZM139.019 237.011L144.098 234.076C144.317 233.951 144.34 233.763 144.145 233.654L139.285 230.844C139.172 230.784 139.045 230.752 138.917 230.752C138.789 230.752 138.662 230.784 138.549 230.844L133.47 233.779C133.251 233.904 133.228 234.092 133.423 234.209L138.283 237.011C138.398 237.068 138.526 237.095 138.654 237.091C138.782 237.087 138.907 237.051 139.019 236.988V237.011ZM131.6 241.3L136.679 238.365C136.89 238.24 136.914 238.052 136.718 237.934L131.827 235.109C131.714 235.049 131.587 235.017 131.459 235.017C131.331 235.017 131.204 235.049 131.091 235.109L126.012 238.044C125.793 238.169 125.777 238.357 125.965 238.467L130.825 241.276C130.944 241.339 131.077 241.372 131.212 241.372C131.347 241.372 131.48 241.339 131.6 241.276V241.3ZM169.594 211.342L174.673 208.408C174.892 208.282 174.908 208.095 174.72 207.985L169.86 205.176C169.74 205.111 169.606 205.077 169.469 205.077C169.333 205.077 169.198 205.111 169.078 205.176L163.999 208.11C163.787 208.235 163.764 208.423 163.96 208.541L168.819 211.342C168.94 211.406 169.074 211.437 169.21 211.433C169.346 211.429 169.478 211.39 169.594 211.319V211.342ZM161.299 224.114L172.631 217.564C172.842 217.439 172.865 217.251 172.67 217.141L160.868 210.325C160.755 210.265 160.629 210.233 160.501 210.233C160.372 210.233 160.246 210.265 160.133 210.325L154.271 213.713C154.052 213.839 154.036 214.027 154.224 214.136L160.485 217.744C160.673 217.853 160.657 218.049 160.438 218.174L155.743 220.882C155.523 221.007 155.508 221.195 155.696 221.305L160.555 224.114C160.671 224.17 160.798 224.198 160.927 224.198C161.056 224.198 161.183 224.17 161.299 224.114ZM127.397 221.234L122.318 224.169C122.099 224.294 122.084 224.482 122.271 224.591L127.131 227.401C127.246 227.457 127.372 227.486 127.499 227.486C127.627 227.486 127.752 227.457 127.867 227.401L132.954 224.466C133.165 224.341 133.188 224.145 132.993 224.036L128.133 221.234C128.018 221.176 127.892 221.147 127.763 221.15C127.635 221.153 127.509 221.187 127.397 221.25V221.234ZM119.971 225.523L114.892 228.457C114.673 228.575 114.657 228.77 114.845 228.88L119.705 231.689C119.825 231.754 119.959 231.787 120.096 231.787C120.232 231.787 120.367 231.754 120.487 231.689L125.566 228.763C125.777 228.637 125.801 228.442 125.605 228.332L120.745 225.53C120.627 225.464 120.493 225.43 120.357 225.432C120.221 225.433 120.088 225.47 119.971 225.538V225.523ZM78.8851 271.288C78.9983 271.348 79.1246 271.38 79.2529 271.38C79.3812 271.38 79.5075 271.348 79.6207 271.288L84.6996 268.353C84.9188 268.228 84.9344 268.04 84.7466 267.931L79.8868 265.121C79.7714 265.064 79.6441 265.033 79.515 265.033C79.386 265.033 79.2587 265.064 79.1433 265.121L74.0643 268.048C73.8531 268.173 73.8296 268.369 74.0252 268.479L78.8851 271.288ZM60.6117 259.831L55.525 262.766C55.3137 262.891 55.2902 263.079 55.525 263.188L60.3848 265.998C60.498 266.058 60.6243 266.09 60.7526 266.09C60.8809 266.09 61.0072 266.058 61.1204 265.998L66.1994 263.063C66.4185 262.938 66.4342 262.75 66.2463 262.633L61.3865 259.831C61.2685 259.764 61.135 259.728 60.9991 259.728C60.8633 259.728 60.7298 259.764 60.6117 259.831ZM70.0027 268.44C70.116 268.5 70.2423 268.531 70.3706 268.531C70.4988 268.531 70.6251 268.5 70.7384 268.44L75.8173 265.505C76.0364 265.38 76.0521 265.192 75.8643 265.082L71.0044 262.273C70.8884 262.217 70.7614 262.188 70.6327 262.188C70.5041 262.188 70.377 262.217 70.261 262.273L65.182 265.207C64.9707 265.333 64.9473 265.528 65.182 265.638L70.0027 268.44ZM90.4908 273.049L95.5697 270.114C95.781 269.989 95.8045 269.801 95.5697 269.692L90.7099 266.882C90.5967 266.822 90.4704 266.79 90.3421 266.79C90.2138 266.79 90.0875 266.822 89.9743 266.882L84.8953 269.809C84.6762 269.934 84.6605 270.13 84.8483 270.239L89.7082 273.041C89.8272 273.102 89.9591 273.133 90.0926 273.131C90.2261 273.13 90.3573 273.096 90.4751 273.033L90.4908 273.049ZM82.3049 277.33C82.4203 277.387 82.5476 277.418 82.6767 277.418C82.8057 277.418 82.933 277.387 83.0484 277.33L88.1274 274.395C88.3387 274.27 88.3621 274.082 88.1743 273.972L83.3067 271.155C83.1934 271.095 83.0671 271.063 82.9388 271.063C82.8106 271.063 82.6842 271.095 82.571 271.155L77.4921 274.09C77.2729 274.215 77.2573 274.403 77.4451 274.52L82.3049 277.33ZM67.9915 255.527L62.9125 258.462C62.7012 258.587 62.6778 258.775 62.8734 258.892L67.7333 261.678C67.8465 261.738 67.9728 261.77 68.1011 261.77C68.2293 261.77 68.3556 261.738 68.4689 261.678L73.5478 258.743C73.767 258.618 73.7826 258.43 73.5948 258.321L68.735 255.511C68.6172 255.458 68.4886 255.433 68.3595 255.439C68.2305 255.444 68.1044 255.48 67.9915 255.543V255.527ZM105.117 234.092L100.038 237.027C99.827 237.152 99.8035 237.34 100.038 237.457L104.898 240.259C105.011 240.319 105.138 240.351 105.266 240.351C105.394 240.351 105.521 240.319 105.634 240.259L110.713 237.324C110.932 237.199 110.947 237.011 110.76 236.901L105.9 234.092C105.778 234.03 105.643 233.999 105.507 234.002C105.37 234.004 105.236 234.041 105.117 234.108V234.092ZM75.3791 251.246L70.3001 254.173C70.081 254.298 70.0654 254.494 70.2532 254.603L75.1208 257.405C75.2341 257.465 75.3604 257.497 75.4886 257.497C75.6169 257.497 75.7432 257.465 75.8565 257.405L80.9354 254.47C81.1545 254.345 81.1702 254.157 80.9824 254.048L76.1225 251.238C76.0106 251.19 75.8895 251.168 75.7678 251.172C75.646 251.176 75.5267 251.206 75.4182 251.262L75.3791 251.246ZM112.505 229.811L107.465 232.722C107.246 232.848 107.23 233.043 107.418 233.153L112.278 235.955C112.392 236.016 112.52 236.048 112.65 236.048C112.779 236.048 112.907 236.016 113.021 235.955L118.1 233.02C118.319 232.895 118.335 232.707 118.147 232.597L113.287 229.788C113.169 229.736 113.04 229.712 112.911 229.719C112.782 229.726 112.656 229.763 112.544 229.827L112.505 229.811ZM97.6357 238.381L92.549 241.315C92.3377 241.44 92.3142 241.628 92.549 241.738L97.4088 244.547C97.522 244.608 97.6483 244.639 97.7766 244.639C97.9049 244.639 98.0312 244.608 98.1444 244.547L103.223 241.613C103.443 241.487 103.466 241.3 103.27 241.182L98.4105 238.381C98.299 238.327 98.1763 238.3 98.0525 238.303C97.9287 238.305 97.8074 238.337 97.6984 238.396L97.6357 238.381ZM90.209 242.669L85.1301 245.604C84.9109 245.729 84.8953 245.917 85.0831 246.026L89.943 248.836C90.0562 248.896 90.1825 248.928 90.3108 248.928C90.439 248.928 90.5654 248.896 90.6786 248.836L95.7654 245.909C95.9767 245.784 96.0001 245.588 95.8045 245.479L90.9447 242.677C90.839 242.628 90.7237 242.603 90.6073 242.605C90.4908 242.606 90.3762 242.633 90.2716 242.685L90.209 242.669ZM82.7823 246.958L77.766 249.939C77.5468 250.064 77.5312 250.26 77.719 250.37L82.5789 253.179C82.6992 253.244 82.8336 253.277 82.9701 253.277C83.1067 253.277 83.2411 253.244 83.3614 253.179L88.4404 250.244C88.6517 250.127 88.6752 249.931 88.4795 249.822L83.6197 247.012C83.5051 246.939 83.3734 246.897 83.2375 246.89C83.1016 246.883 82.9663 246.912 82.8449 246.973L82.7823 246.958ZM116.684 249.83L121.763 246.895C121.982 246.778 121.998 246.582 121.81 246.472L117.013 243.679C116.897 243.621 116.77 243.591 116.641 243.591C116.512 243.591 116.384 243.621 116.269 243.679L111.19 246.605C110.979 246.731 110.955 246.926 111.19 247.036L116.05 249.838C116.158 249.893 116.276 249.922 116.397 249.923C116.518 249.925 116.638 249.898 116.746 249.845L116.684 249.83ZM185.95 187.387L180.871 190.322C180.66 190.447 180.636 190.635 180.832 190.753L185.692 193.554C185.805 193.614 185.932 193.646 186.06 193.646C186.188 193.646 186.314 193.614 186.428 193.554L191.507 190.619C191.726 190.494 191.741 190.306 191.554 190.197L186.694 187.387C186.586 187.342 186.469 187.319 186.352 187.322C186.234 187.325 186.119 187.352 186.013 187.403L185.95 187.387ZM176.966 192.576L171.887 195.511C171.668 195.636 171.652 195.831 171.84 195.941L176.7 198.743C176.813 198.803 176.94 198.834 177.068 198.834C177.196 198.834 177.323 198.803 177.436 198.743L182.523 195.808C182.734 195.683 182.757 195.495 182.562 195.385L177.702 192.576C177.595 192.532 177.479 192.51 177.364 192.513C177.248 192.516 177.134 192.543 177.029 192.592L176.966 192.576ZM193.4 183.107L188.321 186.034C188.102 186.159 188.087 186.354 188.275 186.464L193.134 189.266C193.25 189.323 193.377 189.354 193.506 189.354C193.635 189.354 193.762 189.323 193.878 189.266L198.957 186.331C199.168 186.206 199.192 186.018 198.996 185.908L194.136 183.099C194.026 183.049 193.906 183.025 193.785 183.029C193.664 183.033 193.546 183.065 193.44 183.122L193.4 183.107ZM152.362 221.226L157.441 218.299C157.66 218.174 157.676 217.979 157.488 217.869L152.628 215.067C152.514 215.006 152.386 214.973 152.256 214.973C152.126 214.973 151.999 215.006 151.884 215.067L146.805 218.002C146.586 218.127 146.571 218.315 146.758 218.425L151.618 221.234C151.738 221.3 151.872 221.335 152.009 221.336C152.145 221.337 152.28 221.305 152.401 221.242L152.362 221.226ZM201.563 178.795C201.45 178.734 201.323 178.703 201.195 178.703C201.067 178.703 200.94 178.734 200.827 178.795L195.748 181.729C195.529 181.847 195.513 182.042 195.701 182.152L200.561 184.961C200.674 185.022 200.801 185.053 200.929 185.053C201.057 185.053 201.183 185.022 201.297 184.961L206.383 182.035C206.595 181.909 206.618 181.714 206.423 181.604L201.563 178.795ZM124.173 245.557L129.252 242.63C129.463 242.505 129.487 242.309 129.252 242.199L124.392 239.398C124.279 239.338 124.153 239.306 124.024 239.306C123.896 239.306 123.77 239.338 123.657 239.398L118.578 242.333C118.359 242.458 118.343 242.646 118.531 242.755L123.391 245.565C123.512 245.628 123.646 245.66 123.783 245.659C123.919 245.657 124.053 245.622 124.173 245.557ZM215.227 192.991L220.306 190.056C220.525 189.931 220.54 189.743 220.353 189.633L215.493 186.824C215.372 186.76 215.238 186.726 215.101 186.726C214.965 186.726 214.831 186.76 214.71 186.824L209.631 189.759C209.42 189.884 209.396 190.072 209.592 190.189L214.452 192.991C214.57 193.058 214.703 193.093 214.839 193.093C214.975 193.093 215.109 193.058 215.227 192.991ZM200.858 193.265L205.937 190.338C206.157 190.213 206.172 190.017 205.984 189.907L201.125 187.106C201.01 187.044 200.883 187.012 200.753 187.012C200.623 187.012 200.495 187.044 200.381 187.106L195.302 190.04C195.091 190.166 195.067 190.353 195.263 190.463L200.123 193.272C200.237 193.332 200.363 193.362 200.492 193.36C200.62 193.359 200.746 193.326 200.858 193.265ZM208.52 182.817C208.407 182.757 208.28 182.725 208.152 182.725C208.024 182.725 207.898 182.757 207.784 182.817L202.729 185.767C202.51 185.893 202.494 186.08 202.682 186.19L207.542 189C207.658 189.055 207.785 189.084 207.913 189.084C208.042 189.084 208.169 189.055 208.285 189L213.364 186.065C213.575 185.94 213.599 185.744 213.403 185.634L208.52 182.817ZM210.085 181.909L221.886 188.726C222.002 188.783 222.129 188.814 222.258 188.814C222.387 188.814 222.515 188.783 222.63 188.726L227.709 185.791C227.928 185.666 227.944 185.478 227.756 185.368L215.947 178.552C215.833 178.492 215.707 178.46 215.579 178.46C215.451 178.46 215.324 178.492 215.211 178.552L210.132 181.487C209.936 181.612 209.921 181.8 210.085 181.909ZM192.939 191.418L187.852 194.345C187.641 194.47 187.617 194.665 187.813 194.775L192.673 197.577C192.786 197.637 192.912 197.668 193.04 197.668C193.169 197.668 193.295 197.637 193.408 197.577L198.487 194.642C198.706 194.517 198.722 194.329 198.534 194.219L193.674 191.41C193.563 191.355 193.441 191.327 193.317 191.328C193.194 191.329 193.072 191.36 192.962 191.418H192.939ZM137.054 223.676L131.968 226.61C131.756 226.736 131.733 226.931 131.929 227.041L136.788 229.843C136.902 229.903 137.028 229.934 137.156 229.934C137.284 229.934 137.411 229.903 137.524 229.843L142.603 226.908C142.822 226.783 142.838 226.595 142.65 226.485L137.79 223.676C137.68 223.619 137.558 223.59 137.434 223.59C137.31 223.59 137.188 223.619 137.078 223.676H137.054ZM207.041 197.303C207.154 197.363 207.28 197.395 207.409 197.395C207.537 197.395 207.663 197.363 207.776 197.303L212.855 194.368C213.075 194.243 213.09 194.055 212.902 193.938L208.043 191.136C207.929 191.076 207.803 191.044 207.675 191.044C207.546 191.044 207.42 191.076 207.307 191.136L202.22 194.071C202.009 194.196 201.985 194.384 202.181 194.493L207.041 197.303ZM144.497 219.419L139.418 222.345C139.207 222.471 139.183 222.666 139.418 222.776L144.278 225.577C144.391 225.638 144.517 225.669 144.646 225.669C144.774 225.669 144.9 225.638 145.013 225.577L150.092 222.643C150.311 222.518 150.327 222.33 150.139 222.22L145.279 219.411C145.158 219.347 145.024 219.315 144.887 219.317C144.751 219.318 144.617 219.353 144.497 219.419ZM86.3039 267.047C86.4193 267.104 86.5466 267.134 86.6757 267.134C86.8047 267.134 86.932 267.104 87.0474 267.047L92.1264 264.12C92.3377 263.994 92.3611 263.799 92.1264 263.689L87.2665 260.888C87.1533 260.827 87.027 260.796 86.8987 260.796C86.7704 260.796 86.6441 260.827 86.5309 260.888L81.4519 263.822C81.2328 263.947 81.2172 264.135 81.405 264.245L86.3039 267.047ZM77.6955 258L72.5931 260.895C72.374 261.013 72.3583 261.208 72.5461 261.318L77.4138 264.127C77.527 264.188 77.6533 264.219 77.7816 264.219C77.9099 264.219 78.0362 264.188 78.1494 264.127L83.2284 261.201C83.4475 261.075 83.4632 260.88 83.2754 260.77L78.4155 257.961C78.2989 257.905 78.171 257.878 78.0419 257.881C77.9129 257.883 77.7862 257.916 77.6721 257.976L77.6955 258ZM94.4976 262.734L99.5765 259.8C99.7878 259.675 99.8113 259.479 99.6157 259.369L94.7558 256.568C94.6426 256.507 94.5163 256.476 94.388 256.476C94.2598 256.476 94.1334 256.507 94.0202 256.568L88.9412 259.502C88.7221 259.628 88.7065 259.815 88.8943 259.925L93.7541 262.734C93.8682 262.785 93.9922 262.809 94.1168 262.805C94.2415 262.801 94.3636 262.769 94.4741 262.711L94.4976 262.734ZM101.916 258.446L106.995 255.511C107.215 255.386 107.238 255.198 107.042 255.089L102.159 252.287C102.046 252.227 101.92 252.195 101.791 252.195C101.663 252.195 101.537 252.227 101.423 252.287L96.3445 255.222C96.1254 255.347 96.1019 255.535 96.2975 255.644L101.157 258.454C101.273 258.509 101.401 258.535 101.529 258.53C101.657 258.525 101.782 258.488 101.893 258.422L101.916 258.446ZM109.343 254.157L114.422 251.223C114.641 251.097 114.657 250.91 114.469 250.8L109.609 247.991C109.489 247.926 109.354 247.893 109.218 247.893C109.081 247.893 108.947 247.926 108.827 247.991L103.748 250.925C103.536 251.051 103.513 251.246 103.748 251.356L108.608 254.157C108.72 254.21 108.843 254.235 108.966 254.231C109.09 254.227 109.211 254.194 109.32 254.134L109.343 254.157ZM85.0831 253.711L80.0042 256.646C79.785 256.771 79.7694 256.959 79.9572 257.069L84.817 259.878C84.9374 259.942 85.0718 259.976 85.2083 259.976C85.3448 259.976 85.4792 259.942 85.5996 259.878L90.6786 256.951C90.8899 256.826 90.9134 256.63 90.7177 256.521L85.8579 253.719C85.7444 253.65 85.6152 253.611 85.4824 253.605C85.3496 253.6 85.2175 253.628 85.0988 253.688L85.0831 253.711ZM92.5098 249.423L87.4309 252.357C87.2117 252.483 87.1961 252.67 87.3839 252.78L92.2437 255.59C92.357 255.65 92.4833 255.681 92.6116 255.681C92.7398 255.681 92.8662 255.65 92.9794 255.59L98.0662 252.655C98.2775 252.53 98.3009 252.342 98.1053 252.224L93.2455 249.423C93.1361 249.361 93.0136 249.327 92.8883 249.323C92.763 249.319 92.6386 249.345 92.5255 249.399L92.5098 249.423ZM122.209 232.276L117.13 235.211C116.911 235.336 116.895 235.524 117.083 235.634L121.943 238.443C122.064 238.505 122.198 238.537 122.334 238.537C122.47 238.537 122.604 238.505 122.725 238.443L127.804 235.508C128.016 235.383 128.039 235.188 127.804 235.078L122.944 232.276C122.835 232.215 122.713 232.181 122.587 232.177C122.462 232.173 122.338 232.199 122.225 232.253L122.209 232.276ZM114.782 236.565L109.703 239.5C109.484 239.617 109.468 239.813 109.656 239.922L114.516 242.732C114.631 242.79 114.759 242.82 114.888 242.82C115.017 242.82 115.144 242.79 115.26 242.732L120.338 239.805C120.558 239.68 120.573 239.484 120.385 239.374L115.518 236.573C115.409 236.51 115.287 236.475 115.162 236.469C115.036 236.464 114.912 236.489 114.798 236.541L114.782 236.565ZM129.651 227.957L124.572 230.891C124.353 231.016 124.337 231.204 124.525 231.314L129.385 234.123C129.498 234.184 129.625 234.215 129.753 234.215C129.881 234.215 130.008 234.184 130.121 234.123L135.208 231.189C135.419 231.063 135.442 230.876 135.247 230.766L130.387 227.957C130.273 227.897 130.146 227.867 130.018 227.869C129.89 227.87 129.764 227.903 129.651 227.964V227.957ZM99.9522 245.103L94.8654 248.038C94.6541 248.163 94.6306 248.351 94.8263 248.468L99.6861 251.27C99.7993 251.33 99.9256 251.361 100.054 251.361C100.182 251.361 100.309 251.33 100.422 251.27L105.501 248.335C105.72 248.21 105.735 248.022 105.548 247.912L100.688 245.103C100.574 245.044 100.447 245.014 100.319 245.015C100.191 245.016 100.065 245.049 99.9522 245.111V245.103ZM107.371 240.822L102.292 243.749C102.081 243.874 102.057 244.07 102.292 244.179L107.152 246.981C107.265 247.041 107.391 247.073 107.52 247.073C107.648 247.073 107.774 247.041 107.888 246.981L112.967 244.046C113.186 243.921 113.201 243.733 113.014 243.624L108.154 240.814C108.032 240.752 107.897 240.721 107.76 240.724C107.624 240.727 107.49 240.763 107.371 240.83V240.822ZM97.894 268.721L102.981 265.794C103.192 265.669 103.216 265.474 103.02 265.364L98.1757 262.586C98.0625 262.526 97.9362 262.494 97.8079 262.494C97.6796 262.494 97.5533 262.526 97.4401 262.586L92.3611 265.52C92.142 265.638 92.1185 265.834 92.3142 265.943L97.174 268.753C97.2878 268.805 97.4125 268.83 97.5378 268.825C97.6631 268.819 97.7853 268.784 97.894 268.721ZM58.7648 266.874L53.905 264.073C53.7918 264.012 53.6655 263.981 53.5372 263.981C53.4089 263.981 53.2826 264.012 53.1694 264.073L48.0904 267.054C47.8713 267.18 47.8556 267.367 48.0435 267.477L52.9033 270.286C53.0165 270.347 53.1428 270.378 53.2711 270.378C53.3994 270.378 53.5257 270.347 53.6389 270.286L58.7257 267.36C58.9135 267.203 58.937 267.007 58.7414 266.898L58.7648 266.874ZM68.4376 269.332L63.5777 266.522C63.4645 266.462 63.3382 266.43 63.2099 266.43C63.0816 266.43 62.9553 266.462 62.8421 266.522L55.0163 271.038C54.7971 271.163 54.7815 271.351 54.9693 271.46L59.8292 274.27C59.9445 274.328 60.0718 274.358 60.2009 274.358C60.33 274.358 60.4572 274.328 60.5726 274.27L68.3984 269.754C68.5941 269.629 68.6097 269.441 68.4376 269.332ZM51.5025 261.357L46.627 258.548C46.5138 258.487 46.3875 258.456 46.2592 258.456C46.1309 258.456 46.0046 258.487 45.8914 258.548L39.6307 262.155C39.4116 262.281 39.3959 262.468 39.5837 262.578L44.4436 265.387C44.5639 265.452 44.6984 265.486 44.8349 265.486C44.9714 265.486 45.1058 265.452 45.2262 265.387L51.4868 261.772C51.659 261.678 51.6825 261.467 51.4868 261.357H51.5025ZM56.2997 258.587C56.4129 258.647 56.5392 258.679 56.6675 258.679C56.7958 258.679 56.9221 258.647 57.0353 258.587L62.1143 255.652C62.3334 255.527 62.3491 255.339 62.1613 255.23L57.3014 252.42C57.181 252.356 57.0466 252.322 56.9101 252.322C56.7736 252.322 56.6392 252.356 56.5188 252.42L51.4399 255.347C51.2286 255.472 51.2051 255.668 51.4399 255.777L56.2997 258.587ZM77.3355 272.212L72.4757 269.402C72.3625 269.342 72.2362 269.31 72.1079 269.31C71.9796 269.31 71.8533 269.342 71.7401 269.402L61.9656 275.045C61.7543 275.17 61.7308 275.358 61.9265 275.475L66.7863 278.277C66.8995 278.337 67.0259 278.368 67.1541 278.368C67.2824 278.368 67.4087 278.337 67.522 278.277L77.2729 272.634C77.4921 272.509 77.5077 272.321 77.3199 272.212H77.3355ZM80.7633 278.245L75.9034 275.444C75.783 275.379 75.6486 275.346 75.5121 275.346C75.3756 275.346 75.2412 275.379 75.1208 275.444L68.8602 279.051C68.6489 279.177 68.6254 279.372 68.821 279.482L73.6809 282.283C73.7941 282.344 73.9204 282.375 74.0487 282.375C74.177 282.375 74.3033 282.344 74.4165 282.283L80.6772 278.676C80.9589 278.55 80.9589 278.363 80.7476 278.245H80.7633ZM111.48 226.72C111.593 226.78 111.719 226.812 111.847 226.812C111.976 226.812 112.102 226.78 112.215 226.72L117.302 223.785C117.513 223.668 117.537 223.472 117.341 223.363L112.481 220.553C112.368 220.493 112.242 220.461 112.114 220.461C111.985 220.461 111.859 220.493 111.746 220.553L106.667 223.48C106.448 223.605 106.432 223.801 106.62 223.911L111.48 226.72ZM96.6106 235.289C96.7238 235.35 96.8501 235.381 96.9784 235.381C97.1067 235.381 97.233 235.35 97.3462 235.289L102.425 232.355C102.644 232.229 102.66 232.042 102.472 231.932L97.6123 229.123C97.4969 229.065 97.3696 229.035 97.2405 229.035C97.1115 229.035 96.9842 229.065 96.8688 229.123L91.7898 232.057C91.5707 232.182 91.5551 232.37 91.7429 232.488L96.6106 235.289ZM63.7421 254.306C63.8624 254.37 63.9969 254.404 64.1334 254.404C64.2699 254.404 64.4043 254.37 64.5247 254.306L69.6036 251.379C69.8228 251.254 69.8384 251.058 69.6506 250.949L64.7907 248.147C64.6718 248.078 64.5368 248.042 64.3994 248.042C64.2621 248.042 64.1271 248.078 64.0082 248.147L58.9292 251.082C58.7101 251.199 58.6944 251.395 58.8822 251.504L63.7421 254.306ZM104.1 231.001C104.215 231.059 104.343 231.089 104.472 231.089C104.601 231.089 104.728 231.059 104.843 231.001L109.914 228.027C110.126 227.902 110.149 227.714 109.914 227.604L105.055 224.795C104.94 224.739 104.814 224.71 104.687 224.71C104.559 224.71 104.434 224.739 104.319 224.795L99.24 227.73C99.0209 227.855 99.0053 228.05 99.1931 228.16L104.1 231.001ZM89.2308 239.609C89.344 239.669 89.4703 239.701 89.5986 239.701C89.7269 239.701 89.8532 239.669 89.9664 239.609L95.0454 236.635C95.2645 236.51 95.2802 236.322 95.0923 236.205L90.2325 233.403C90.1121 233.339 89.9777 233.305 89.8412 233.305C89.7047 233.305 89.5703 233.339 89.4499 233.403L84.371 236.338C84.1597 236.463 84.1362 236.651 84.371 236.761L89.2308 239.609ZM84.4101 278.582C84.2947 278.524 84.1674 278.494 84.0384 278.494C83.9093 278.494 83.782 278.524 83.6666 278.582L75.8408 283.097C75.6217 283.223 75.606 283.41 75.7938 283.52L80.6537 286.329C80.7669 286.39 80.8932 286.421 81.0215 286.421C81.1498 286.421 81.2761 286.39 81.3893 286.329L89.2152 281.822C89.4343 281.696 89.4499 281.501 89.2621 281.391L84.4101 278.582ZM78.572 245.76C78.6852 245.821 78.8116 245.852 78.9398 245.852C79.0681 245.852 79.1944 245.821 79.3077 245.76L84.3944 242.826C84.6057 242.7 84.6292 242.513 84.3944 242.403L79.5346 239.594C79.4214 239.533 79.2951 239.502 79.1668 239.502C79.0385 239.502 78.9122 239.533 78.799 239.594L73.72 242.528C73.5009 242.653 73.4852 242.841 73.6731 242.951L78.572 245.76ZM71.1453 250.049C71.2607 250.107 71.388 250.137 71.517 250.137C71.6461 250.137 71.7734 250.107 71.8888 250.049L76.9677 247.114C77.179 246.989 77.2025 246.793 77.0069 246.684L72.147 243.882C72.0338 243.822 71.9075 243.79 71.7792 243.79C71.6509 243.79 71.5246 243.822 71.4114 243.882L66.3168 246.809C66.0976 246.934 66.082 247.122 66.2698 247.232L71.1453 250.049ZM221.965 199.181C221.851 199.121 221.725 199.089 221.597 199.089C221.469 199.089 221.342 199.121 221.229 199.181L208.708 206.396C208.489 206.522 208.473 206.709 208.661 206.827L213.528 209.628C213.642 209.689 213.768 209.72 213.896 209.72C214.025 209.72 214.151 209.689 214.264 209.628L226.785 202.405C226.997 202.28 227.02 202.092 226.825 201.983L221.965 199.181ZM205.53 208.658C205.417 208.598 205.291 208.566 205.163 208.566C205.034 208.566 204.908 208.598 204.795 208.658L199.724 211.593C199.505 211.718 199.481 211.914 199.677 212.023L204.537 214.825C204.65 214.885 204.776 214.917 204.904 214.917C205.033 214.917 205.159 214.885 205.272 214.825L210.351 211.89C210.57 211.765 210.594 211.577 210.398 211.467L205.53 208.658ZM105.321 264.464L110.4 261.529C110.619 261.404 110.634 261.208 110.447 261.099L105.587 258.297C105.474 258.237 105.347 258.205 105.219 258.205C105.091 258.205 104.964 258.237 104.851 258.297L99.7644 261.232C99.5531 261.357 99.5296 261.545 99.7252 261.655L104.585 264.464C104.7 264.52 104.825 264.549 104.953 264.549C105.08 264.549 105.206 264.52 105.321 264.464ZM190.685 217.18C190.572 217.12 190.445 217.089 190.317 217.089C190.189 217.089 190.062 217.12 189.949 217.18L184.87 220.115C184.651 220.24 184.635 220.428 184.823 220.538L189.683 223.347C189.799 223.405 189.926 223.435 190.055 223.435C190.184 223.435 190.311 223.405 190.427 223.347L195.506 220.412C195.717 220.287 195.74 220.092 195.545 219.982L190.685 217.18ZM229.376 194.845C229.263 194.785 229.136 194.754 229.008 194.754C228.88 194.754 228.753 194.785 228.64 194.845L223.561 197.78C223.342 197.897 223.326 198.093 223.514 198.203L228.374 201.012C228.487 201.072 228.614 201.104 228.742 201.104C228.87 201.104 228.996 201.072 229.11 201.012L234.196 198.085C234.408 197.96 234.431 197.764 234.236 197.655L229.376 194.845ZM241.662 193.359L229.861 186.55C229.746 186.492 229.618 186.462 229.489 186.462C229.36 186.462 229.233 186.492 229.118 186.55L224.039 189.485C223.827 189.602 223.804 189.798 223.999 189.907L235.801 196.724C235.915 196.78 236.041 196.809 236.169 196.809C236.296 196.809 236.422 196.78 236.536 196.724L241.615 193.789C241.835 193.664 241.85 193.468 241.662 193.359ZM162.942 233.2C162.829 233.14 162.703 233.108 162.574 233.108C162.446 233.108 162.32 233.14 162.207 233.2L155.946 236.808C155.727 236.933 155.711 237.128 155.899 237.238L160.759 240.04C160.872 240.1 160.998 240.131 161.127 240.131C161.255 240.131 161.381 240.1 161.495 240.04L167.755 236.432C167.974 236.307 167.99 236.111 167.802 236.001L162.942 233.2ZM181.724 222.369C181.611 222.309 181.485 222.277 181.356 222.277C181.228 222.277 181.102 222.309 180.989 222.369L173.163 226.884C172.944 227.01 172.928 227.197 173.116 227.307L177.999 230.14C178.115 230.195 178.242 230.224 178.371 230.224C178.5 230.224 178.627 230.195 178.743 230.14L186.568 225.624C186.788 225.499 186.803 225.311 186.615 225.194L181.724 222.369ZM145.772 243.123C145.657 243.065 145.53 243.035 145.401 243.035C145.272 243.035 145.144 243.065 145.029 243.123L103.216 267.258C103.004 267.383 102.981 267.579 103.216 267.688L108.075 270.49C108.189 270.55 108.315 270.582 108.443 270.582C108.571 270.582 108.698 270.55 108.811 270.49L150.624 246.347C150.844 246.222 150.859 246.034 150.671 245.925L145.772 243.123ZM101.611 268.62C101.497 268.564 101.371 268.534 101.243 268.534C101.116 268.534 100.99 268.564 100.876 268.62L94.615 272.235C94.3958 272.36 94.3724 272.548 94.568 272.658L99.4279 275.467C99.5424 275.523 99.6682 275.552 99.7957 275.552C99.9232 275.552 100.049 275.523 100.163 275.467L106.424 271.852C106.643 271.726 106.659 271.539 106.471 271.429L101.611 268.62ZM154.342 238.201C154.228 238.14 154.102 238.109 153.974 238.109C153.846 238.109 153.719 238.14 153.606 238.201L147.345 241.816C147.126 241.941 147.111 242.129 147.298 242.239L152.158 245.048C152.274 245.106 152.401 245.136 152.53 245.136C152.659 245.136 152.786 245.106 152.902 245.048L159.162 241.44C159.374 241.315 159.397 241.127 159.202 241.018L154.342 238.201ZM92.9872 273.62C92.874 273.56 92.7477 273.528 92.6194 273.528C92.4911 273.528 92.3648 273.56 92.2516 273.62L85.9909 277.228C85.7718 277.353 85.7561 277.541 85.944 277.651L90.8038 280.46C90.9192 280.518 91.0465 280.548 91.1755 280.548C91.3046 280.548 91.4319 280.518 91.5472 280.46L97.8079 276.852C98.0192 276.727 98.0427 276.531 97.847 276.422L92.9872 273.62ZM171.535 228.277C171.422 228.217 171.296 228.186 171.167 228.186C171.039 228.186 170.913 228.217 170.799 228.277L164.539 231.885C164.327 232.01 164.304 232.198 164.5 232.308L169.391 235.07C169.504 235.13 169.63 235.162 169.759 235.162C169.887 235.162 170.013 235.13 170.126 235.07L176.387 231.462C176.606 231.337 176.622 231.142 176.434 231.032L171.535 228.277ZM198.143 212.931C198.03 212.871 197.903 212.839 197.775 212.839C197.647 212.839 197.52 212.871 197.407 212.931L192.328 215.866C192.109 215.991 192.094 216.179 192.281 216.288L197.141 219.098C197.254 219.158 197.381 219.189 197.509 219.189C197.637 219.189 197.764 219.158 197.877 219.098L202.964 216.163C203.175 216.038 203.198 215.85 203.003 215.74L198.143 212.931ZM214.781 201.286L219.867 198.351C220.079 198.226 220.102 198.038 219.906 197.929L215.008 195.158C214.894 195.098 214.768 195.067 214.64 195.067C214.511 195.067 214.385 195.098 214.272 195.158L209.193 198.093C208.974 198.218 208.958 198.406 209.146 198.524L214.006 201.325C214.127 201.387 214.263 201.415 214.398 201.408C214.534 201.402 214.666 201.359 214.781 201.286ZM184.487 202.742L189.566 199.807C189.777 199.69 189.801 199.494 189.566 199.384L184.706 196.575C184.593 196.515 184.466 196.483 184.338 196.483C184.21 196.483 184.084 196.515 183.97 196.575L178.891 199.502C178.672 199.627 178.657 199.823 178.844 199.932L183.704 202.734C183.818 202.797 183.945 202.83 184.075 202.832C184.205 202.833 184.333 202.802 184.448 202.742H184.487ZM164.758 230.132L179.627 221.524C179.846 221.398 179.862 221.203 179.674 221.093L174.814 218.292C174.699 218.234 174.571 218.204 174.442 218.204C174.313 218.204 174.186 218.234 174.071 218.292L159.202 226.861C158.982 226.986 158.967 227.182 159.155 227.291L164.014 230.093C164.115 230.156 164.229 230.194 164.347 230.207C164.465 230.219 164.584 230.204 164.695 230.163L164.758 230.132ZM206.618 205.567C206.739 205.631 206.873 205.665 207.01 205.665C207.146 205.665 207.28 205.631 207.401 205.567L212.48 202.632C212.691 202.507 212.715 202.319 212.519 202.202L207.659 199.4C207.546 199.34 207.42 199.308 207.291 199.308C207.163 199.308 207.037 199.34 206.923 199.4L201.844 202.335C201.625 202.46 201.61 202.648 201.798 202.757L206.618 205.567ZM200.412 201.529L205.499 198.602C205.71 198.477 205.734 198.281 205.538 198.171L200.678 195.37C200.565 195.309 200.439 195.278 200.311 195.278C200.182 195.278 200.056 195.309 199.943 195.37L194.864 198.304C194.645 198.43 194.621 198.617 194.817 198.727L199.677 201.536C199.783 201.594 199.901 201.626 200.022 201.63C200.143 201.634 200.263 201.61 200.373 201.56L200.412 201.529ZM157.37 234.397L162.449 231.462C162.661 231.337 162.684 231.149 162.449 231.04L157.589 228.23C157.476 228.17 157.35 228.139 157.222 228.139C157.093 228.139 156.967 228.17 156.854 228.23L151.775 231.165C151.556 231.29 151.54 231.486 151.728 231.596L156.588 234.397C156.695 234.459 156.814 234.496 156.938 234.505C157.061 234.515 157.185 234.496 157.3 234.452L157.37 234.397ZM190.239 215.02C190.353 215.076 190.479 215.106 190.607 215.106C190.734 215.106 190.86 215.076 190.974 215.02L196.053 212.086C196.273 211.961 196.288 211.765 196.1 211.655L191.241 208.854C191.127 208.793 191.001 208.762 190.873 208.762C190.744 208.762 190.618 208.793 190.505 208.854L185.418 211.788C185.207 211.914 185.183 212.101 185.379 212.211L190.239 215.02ZM120.174 255.887L125.253 252.952C125.464 252.827 125.488 252.639 125.292 252.53L120.432 249.72C120.319 249.66 120.193 249.628 120.065 249.628C119.936 249.628 119.81 249.66 119.697 249.72L114.61 252.678C114.391 252.804 114.375 252.991 114.563 253.109L119.423 255.91C119.541 255.966 119.671 255.993 119.801 255.989C119.932 255.985 120.06 255.95 120.174 255.887ZM127.601 251.598L132.68 248.664C132.891 248.538 132.915 248.351 132.68 248.241L127.82 245.432C127.707 245.371 127.58 245.34 127.452 245.34C127.324 245.34 127.198 245.371 127.084 245.432L122.045 248.374C121.825 248.499 121.81 248.695 121.998 248.804L126.857 251.606C126.972 251.667 127.1 251.698 127.23 251.696C127.36 251.695 127.487 251.661 127.601 251.598ZM112.732 260.207L117.811 257.272C118.03 257.147 118.046 256.959 117.858 256.842L113.045 254.009C112.924 253.944 112.79 253.911 112.654 253.911C112.517 253.911 112.383 253.944 112.262 254.009L107.191 256.983C106.98 257.108 106.956 257.296 107.152 257.405L112.012 260.215C112.128 260.269 112.256 260.294 112.385 260.287C112.513 260.28 112.637 260.242 112.747 260.175L112.732 260.207ZM142.431 243.06L147.51 240.126C147.729 240 147.745 239.805 147.557 239.695L142.697 236.894C142.581 236.836 142.454 236.806 142.325 236.806C142.196 236.806 142.069 236.836 141.953 236.894L136.874 239.828C136.663 239.953 136.64 240.141 136.835 240.251L141.695 243.06C141.814 243.114 141.944 243.139 142.075 243.134C142.205 243.128 142.332 243.092 142.446 243.029L142.431 243.06ZM135.004 247.341L140.083 244.414C140.302 244.289 140.326 244.093 140.13 243.984L135.27 241.182C135.157 241.122 135.031 241.09 134.902 241.09C134.774 241.09 134.648 241.122 134.535 241.182L129.479 244.109C129.26 244.234 129.236 244.422 129.432 244.532L134.292 247.341C134.407 247.395 134.533 247.421 134.66 247.415C134.786 247.41 134.91 247.374 135.02 247.31L135.004 247.341ZM149.873 238.772L154.952 235.837C155.171 235.712 155.187 235.524 154.999 235.415L150.139 232.605C150.019 232.541 149.884 232.507 149.748 232.507C149.611 232.507 149.477 232.541 149.357 232.605L144.348 235.532C144.137 235.657 144.113 235.845 144.309 235.955L149.169 238.764C149.28 238.815 149.401 238.84 149.524 238.836C149.646 238.832 149.766 238.799 149.873 238.74V238.772ZM190.387 179.131C190.503 179.189 190.63 179.219 190.759 179.219C190.888 179.219 191.016 179.189 191.131 179.131L196.21 176.196C196.429 176.071 196.445 175.883 196.257 175.774L194.958 174.991C194.845 174.931 194.718 174.899 194.59 174.899C194.462 174.899 194.335 174.931 194.222 174.991L189.143 177.942C188.924 178.067 188.908 178.262 189.096 178.372L190.387 179.131ZM153.489 202.499C153.602 202.559 153.728 202.591 153.856 202.591C153.985 202.591 154.111 202.559 154.224 202.499L159.303 199.564C159.522 199.439 159.538 199.251 159.35 199.142L154.522 196.278C154.401 196.213 154.267 196.179 154.13 196.179C153.994 196.179 153.859 196.213 153.739 196.278L148.66 199.212C148.449 199.337 148.425 199.525 148.621 199.643L153.489 202.499ZM168.358 193.93C168.478 193.994 168.613 194.028 168.749 194.028C168.886 194.028 169.02 193.994 169.14 193.93L174.219 191.003C174.431 190.878 174.454 190.682 174.258 190.573L169.399 187.763C169.285 187.703 169.159 187.671 169.031 187.671C168.903 187.671 168.776 187.703 168.663 187.763L163.584 190.698C163.365 190.815 163.349 191.011 163.537 191.12L168.358 193.93ZM144.419 207.68C144.532 207.74 144.658 207.772 144.786 207.772C144.915 207.772 145.041 207.74 145.154 207.68L150.241 204.745C150.452 204.62 150.476 204.432 150.28 204.322L145.42 201.513C145.307 201.453 145.181 201.421 145.052 201.421C144.924 201.421 144.798 201.453 144.685 201.513L139.606 204.448C139.387 204.573 139.371 204.761 139.559 204.87L144.419 207.68ZM160.908 198.156C161.022 198.217 161.15 198.25 161.279 198.25C161.409 198.25 161.537 198.217 161.651 198.156L166.73 195.221C166.941 195.096 166.965 194.908 166.73 194.798L161.909 192.028C161.796 191.968 161.67 191.936 161.541 191.936C161.413 191.936 161.287 191.968 161.174 192.028L156.087 194.947C155.868 195.072 155.852 195.268 156.04 195.378L160.908 198.156ZM129.565 216.288C129.681 216.346 129.808 216.376 129.937 216.376C130.066 216.376 130.193 216.346 130.309 216.288L135.388 213.361C135.607 213.236 135.622 213.04 135.435 212.931L130.575 210.129C130.456 210.061 130.321 210.024 130.183 210.024C130.046 210.024 129.911 210.061 129.792 210.129L124.784 213.048C124.564 213.173 124.549 213.361 124.737 213.471L129.565 216.288ZM136.992 212C137.113 212.061 137.247 212.094 137.383 212.094C137.519 212.094 137.653 212.061 137.774 212L142.853 209.065C143.065 208.94 143.088 208.752 142.893 208.635L138.033 205.833C137.919 205.773 137.793 205.741 137.665 205.741C137.537 205.741 137.41 205.773 137.297 205.833L132.218 208.768C131.999 208.893 131.983 209.081 132.171 209.19L136.992 212ZM175.542 187.685C175.655 187.745 175.781 187.777 175.91 187.777C176.038 187.777 176.164 187.745 176.277 187.685L181.356 184.75C181.576 184.625 181.591 184.437 181.403 184.32L180.112 183.576C179.997 183.518 179.87 183.488 179.74 183.488C179.611 183.488 179.484 183.518 179.369 183.576L174.29 186.511C174.078 186.636 174.055 186.824 174.251 186.933L175.542 187.685ZM197.814 174.811C197.93 174.869 198.057 174.899 198.186 174.899C198.315 174.899 198.442 174.869 198.558 174.811L203.637 171.884C203.848 171.759 203.871 171.564 203.676 171.454L202.384 170.671C202.271 170.611 202.145 170.58 202.017 170.58C201.888 170.58 201.762 170.611 201.649 170.671L196.57 173.606C196.351 173.731 196.327 173.919 196.523 174.029L197.814 174.811ZM208.027 180.704C208.141 180.76 208.267 180.789 208.395 180.789C208.522 180.789 208.648 180.76 208.763 180.704L213.841 177.769C214.061 177.644 214.084 177.449 213.888 177.339L209.029 174.537C208.915 174.477 208.789 174.446 208.661 174.446C208.533 174.446 208.406 174.477 208.293 174.537L203.206 177.472C202.995 177.597 202.971 177.785 203.206 177.895L208.027 180.704ZM222.168 196.99L227.247 194.055C227.466 193.93 227.49 193.742 227.294 193.632L222.434 190.823C222.32 190.767 222.194 190.738 222.066 190.738C221.939 190.738 221.813 190.767 221.699 190.823L216.612 193.758C216.401 193.883 216.377 194.078 216.612 194.188L221.472 196.99C221.579 197.045 221.698 197.074 221.819 197.075C221.94 197.077 222.059 197.05 222.168 196.998V196.99ZM182.969 183.42C183.082 183.48 183.208 183.512 183.336 183.512C183.465 183.512 183.591 183.48 183.704 183.42L188.783 180.485C189.002 180.36 189.018 180.172 188.83 180.062L187.531 179.28C187.418 179.22 187.292 179.188 187.163 179.188C187.035 179.188 186.909 179.22 186.795 179.28L181.716 182.215C181.497 182.34 181.482 182.535 181.67 182.645L182.969 183.42ZM122.146 220.592C122.259 220.653 122.386 220.684 122.514 220.684C122.642 220.684 122.769 220.653 122.882 220.592L127.961 217.658C128.18 217.532 128.196 217.345 128.008 217.235L123.148 214.426C123.033 214.368 122.905 214.338 122.776 214.338C122.647 214.338 122.52 214.368 122.405 214.426L117.326 217.352C117.114 217.478 117.091 217.673 117.286 217.783L122.146 220.592Z" fill="#455A64"/>
<path id="Vector_12" d="M144.121 258.861L145.162 259.463L172.826 275.428L222.027 247.02L223.053 246.441L194.348 229.866L144.121 258.861Z" fill="#37474F"/>
<path id="Vector_13" d="M145.162 259.463L172.826 275.428L222.027 247.02L194.347 231.048L145.162 259.463Z" fill="#263238"/>
</g>
</svg>
